/* XPM */
static char *sample[] = {
/* columns rows colors chars-per-pixel */
"104 55 4 1 ",
"  c white",
"o c yellow",
"H c blue",
"T c red",
/* https://www.quinapalus.com/wi-index.html */
"                                                                                                        ",
"   oo  ooo                   o  o  oo  ooo                ooo  ooo o  o  oo  ooo  ooo                   ",
"  o  o o  o                  o  o o  o o  o               o  o  o  o  o o  o o  o  o                    ",
"  o  o oooo                   oo  o  o oooo               ooo   o  oo o oooo ooo   o                    ",
"  o  o o o                   o  o o  o o o                o  o  o  o oo o  o o o   o                    ",
"   oo  o  o                  o  o  oo  o  o               ooo  ooo o  o o  o o  o ooo                   ",
"                                                                                                        ",
"   THooooTH                  THooooTH                         oo  ooo  ooo  oooo ooo                    ",
"  o        oooooo           o        oooooo                  o  o o  o o  o o    o  o                   ",
"   oooooooo      o           oooooooo      o                 oooo o  o o  o ooo  ooo                    ",
"                 o                        oooo               o  o o  o o  o o    o o                    ",
"                oooooooo                  o  ooooo           o  o ooo  ooo  oooo o  o                   ",
"                 o                        oooo                                                          ",
"   THoooooo      o           THoooooo      o                                                            ",
"  o        oooooo           o        oooooo                                                             ",
"   oooHTooo                  oooHTooo                             ooo  o  oo   o  o                     ",
"                                                                   o  o o o o o o                       ",
"                                                                   o   o  oo   o  o                     ",
"  ooo  ooo  oo  ooo  ooo     o  o  oo  ooo                                                              ",
"  o  o  o  o  o o  o o       o  o o  o  o                                                               ",
"  o  o  o  o  o o  o oo      oo o o  o  o                                                               ",
"  o  o  o  o  o o  o o       o oo o  o  o                                                               ",
"  ooo  ooo  oo  ooo  ooo     o  o  oo   o                                                               ",
"                                                                                                        ",
"   ooTHooooooT  oo                                                                                      ",
"  o           Hoo ooooooooooooooooooooooooooooo                                                         ",
"   ooooooooooo  oo          o                                                                           ",
"                           oooo                                                                         ",
"                           o  oooooooooooooooooooo                                                      ",
"   ooTHooooooT  oo         oooo                                                                         ",
"  o           Ho oooooo     o                                                                           ",
"   ooooooooooo  oo          o     ooo                                                                   ",
"                             ooooH   o                                                                  ",
"                                  Too                                                                   ",
"                                                                                                        ",
"                                                                                                        ",
"  oooo o    ooo ooo      oooo o     oo  ooo                                                             ",
"  o    o     o  o  o     o    o    o  o o  o                                                            ",
"  oooo o     o  ooo      oooo o    o  o ooo                                                             ",
"  o    o     o  o        o    o    o  o o                                                               ",
"  o    oooo ooo o        o    oooo  oo  o                                                               ",
"                                                                                                        ",
"   ooooooooooooooooooo                                                                                  ",
"  o                   ooooo                                                                             ",
"   oooooHToooooooooooo     o                                                                            ",
"                          ooo      o      o     o                                                       ",
"                           o                                                                            ",
"                          o oooooooooooooooooooooo                                                      ",
"                          o o                                                                           ",
"                         ooo                                                                            ",
"   oooooooooooooooooTH    o                                                                             ",
"  o                   oooo                                                                              ",
"   ooooooooooooooooooo                                                                                  ",
"                                                                                                        ",
"                                                                                                        ",
};
