/* XPM */
static char * initial_xpm[] = {
"64 48 2 1",
" 	c None",
".	c #000000",
"                                                                ",
"                        . .                                     ",
"                      .   .                                     ",
"              .       .                                         ",
"             ....    .    .        ..                           ",
"            .. . .    .            ..                           ",
" ..        ... .  .   .   .                                     ",
" ..         .. . .      . .                                     ",
"             ....                               .               ",
"              .                                 ..              ",
"                                                 ..             ",
"                                                  ..            ",
"                                                   ..           ",
"                                                    ..          ",
"                                                     ..         ",
"                                                      ..        ",
"          .                                            .        ",
"          .                                            ..       ",
"         ..                                             .       ",
"         .                .....                         .       ",
"        ..         ........                             .       ",
"        .        ...                                    ..      ",
"        .        .           ........                    .      ",
"       ..        .         ...      ....                 .      ",
"       .         .        ..           ..                .      ",
"       .         .        .             ...              .      ",
"      ..         .        .     .....     .              .      ",
"      .          .        .         .     ..             .      ",
"      .          ..       ..        ..     .             .      ",
"      .           .        .....   ..      ..           .       ",
"      .           ..           ....         .           .       ",
"      .            ..                       .          ..       ",
"      .             ..                      .          .        ",
"      .              ..                     .          .        ",
"      .               ..                    .         ..        ",
"       .                ....               ..         .         ",
"       .                   ......        ..          ..         ",
"       .                        ..........           .          ",
"        ..                                          ..          ",
"         ..                                         .           ",
"                                                   ..           ",
"                                                                ",
"                                                                ",
"                                                                ",
"                                                                ",
"                                                                ",
"                                                                ",
"                                                                "};
