/* XPM */
static char *sample[] = {
/* columns rows colors chars-per-pixel */
"100 57 4 1 ",
"  c black",
"+ c red",
"o c yellow",
"O c blue",
/* https://realhet.wordpress.com/2015/09/02/bitmap-logic-simulator/ */
"                                                                                                    ",
"                                                                                                    ",
"  o  o  oo  ooo     oo o  o oo     oo  o  o    oo  ooo ooo   oo  o   o o  o o o                     ",
"  o  o o  o o  o   o o o  o o o   o  o o  o   o  o o   o     o o o   o o  o oo                      ",
"  o oo o  o ooo    ooo o oo o o   o  o o oo   o  o ooo ooo   ooo o   o o oo o                       ",
"  oo o o  o o o    o o oo o o o   o  o oo o   o  o o   o     o o o   o oo o oo                      ",
"  o  o  oo  o  o   o o o  o oo     oo  o  o    oo  o   o     oo  ooo o o  o o o                     ",
"                                                                                                    ",
"    OO  OO           OO           +O  OO      OO  +O         +O          OO  OO                     ",
"  ooO OoO Oo       ooO Oo         O OoO Ooo   O OoO Ooo      O Ooo OO    O OoO Ooo                  ",
"    OO  OO oOO       OO oOO       OO  OO o    OO  OO o       OO o  O Ooo OO  OO o                   ",
"           oO Ooo       oO Ooo    o      o    o      o       o  o  OO o  o      o                   ",
"    OO  OO oOO       OO oOO       oooooooo    oooooooo       oooo   ooo  oooooooo                   ",
"  ooO OoO Oo       ooO Oo                                                                           ",
"    OO  OO           OO            oooooo                    +O  OO  +O                             ",
"                                  +O    o                    O OoO OoO Ooo                          ",
"    OO OO            OO           O OOO o                    OO  OO  OO o                           ",
"   oO OO Oo         oO Oo         OO O Oo                    o          o                           ",
"    OO OO OO         OO OO           OO                      oooooooooooo                           ",
"          O Oo          O Oo                                                                        ",
"    OO OO OO         OO OO        OO                         +O  OO  +O  OO  +O                     ",
"   oO OO Oo         oO Oo         O Oo                       O OoO OoO OoO OoO Ooo                  ",
"    OO OO            OO           OO                         OO  OO  OO  OO  OO o                   ",
"                                                             o                  o                   ",
"                                                             oooooooooooooooooooo                   ",
"                                                                                                    ",
"                                                                                                    ",
"                                                                                                    ",
"                                                                                                    ",
"                                                                                                    ",
"  OO          OO                                                                                    ",
"  O OoooooooooO Oo                  OO      OO                                                      ",
"  OO o        OO OO  OO             O OoooooO Oo                                                    ",
"   ooo           O OoO Oooo         OO      OO OO  OO                                               ",
"              OO OO  OO o                      O OoO Oooooooooooooo                                 ",
"       oooooooO Oo      o                   OO OO  OO   o                                           ",
"       o      OO        o                 ooO Oo        o                                           ",
"       o                o                 o OO          o                                           ",
"       o                o                 o             o                                           ",
"       o                o                 ooooooooooooo o                                           ",
"       o  ooooooooooooooo                             o o                                           ",
"       o  o                               oooooooooooo oo                                           ",
"       o  o                               o           o                                             ",
"       o  o  OO                           o OO        o                                             ",
"       o  oooO Oo                         ooO Oo      o                                             ",
"       o     OO OO  OO                      OO OO  OO o                                             ",
"       o        O OoO Ooo                      O OoO Ooooooooooooo                                  ",
"       o     OO OO  OO  o           +O      OO OO  OO                                               ",
"    oooooooooO Oo       oooo        O OoooooO Oo                                                    ",
"     o       OO                     OO      OO                                                      ",
"     o                                                      +O                                      ",
"     ooooooo                                                O Ooo                                   ",
"                                                            OO o                                    ",
"                                                            o  o                                    ",
"                                                            oooo                                    ",
"                                                                                                    ",
"                                                                                                    ",
};

