/* XPM */
static char *sample[] = {
/* columns rows colors chars-per-pixel */
"37 42 4 1 ",
"  c black",
"+ c red",
"o c yellow",
"O c blue",
/* https://realhet.wordpress.com/2015/09/02/bitmap-logic-simulator/ */
"                                     ",
"                                     ",
"   ooo ooo   o    ooo ooo  oo  o  o  ",
"  o    o  o  o   o  o  o  o  o o  o  ",
"   oo  ooo   o   oooo  o  o    oooo  ",
"     o o o   o   o  o  o  o  o o  o  ",
"  ooo  o  o  ooo o  o  o   oo  o  o  ",
"                                     ",
"                                     ",
"  oooo                         oo    ",
"                              o  o   ",
"   ooo                        o  o   ",
"  o     OO    OO              o  o   ",
"   oo   O OoooO Oo             oo o  ",
"     o  OO    OO OO  OO              ",
"  ooo            O OoO Ooooooooooo   ",
"              OO OO  OO   o          ",
"            ooO Oo        o          ",
"            o OO          o          ",
"            o             o   oooo   ",
"            ooooooooooooo o          ",
"                        o o    oo    ",
"            oooooooooooo oo   o  o   ",
"            o           o     o  o   ",
"            o OO        o     o oo   ",
"  oooo      ooO Oo      o      oo o  ",
"              OO OO  OO o            ",
"  ooo            O OoO Ooooooooooo   ",
"  o  o  OO    OO OO  OO              ",
"  ooo   O OoooO Oo                   ",
"  o o   OO    OO                     ",
"  o  o                               ",
"                                     ",
"                                     ",
"                                     ",
"                                     ",
"                                     ",
"                                     ",
"                                     ",
"                                     ",
"                                     ",
"                                     ",
};

