/* XPM */
static char * generator_xpm[] = {
"64 12 2 1",
" 	c None",
".	c #000000",
"                                                                ",
"                        .. ..                                   ",
"                      ..   ..                                   ",
"              ..       ..                                       ",
"             ........    ..    ..        ....                   ",
"            .... .. ..    ..            ....                    ",
" ....        ...... ..  ..   ..   ..                            ",
" ....         .... .. ..      .. ..                             ",
"               ......                                           ",
"                                                                ",
"                                                                ",
"                                                                "};
